<?xml version="1.0" standalone="no"?>
<!DOCTYPE svg PUBLIC "-//W3C//DTD SVG 20010904//EN"
 "http://www.w3.org/TR/2001/REC-SVG-20010904/DTD/svg10.dtd">
<svg version="1.0" xmlns="http://www.w3.org/2000/svg"
 width="512.000000pt" height="512.000000pt" viewBox="0 0 512.000000 512.000000"
 preserveAspectRatio="xMidYMid meet">
<metadata>
Created by potrace 1.14, written by Peter Selinger 2001-2017
</metadata>
<g transform="translate(0.000000,512.000000) scale(0.100000,-0.100000)"
fill="#000000" stroke="none">
<path d="M0 2560 l0 -2560 2560 0 2560 0 0 2560 0 2560 -2560 0 -2560 0 0
-2560z m1987 720 c71 -23 175 -84 231 -134 108 -99 184 -248 213 -420 15 -91
6 -342 -16 -421 -24 -88 -87 -212 -142 -280 -174 -215 -498 -277 -761 -145
-222 111 -352 362 -352 679 0 427 239 721 605 744 58 3 178 -9 222 -23z m1319
-565 c219 -316 402 -575 407 -575 4 0 7 259 7 575 l0 575 85 0 85 0 0 -730 0
-730 -84 0 -84 0 -392 565 c-215 311 -396 567 -401 571 -5 3 -9 -221 -9 -565
l0 -571 -90 0 -90 0 0 730 0 730 83 0 83 0 400 -575z"/>
<path d="M1697 3129 c-161 -38 -293 -176 -343 -359 -25 -90 -26 -329 -1 -418
42 -157 131 -273 254 -333 66 -33 71 -34 193 -34 120 0 128 1 193 32 129 61
228 197 262 358 19 90 19 270 0 360 -32 149 -126 290 -233 348 -94 51 -225 70
-325 46z"/>
</g>
</svg>
